<svg xmlns="http://www.w3.org/2000/svg" version="1.1" xmlns:xlink="http://www.w3.org/1999/xlink" xmlns:svgjs="http://svgjs.dev/svgjs" width="128" height="128" viewBox="0 0 128 128"><g transform="matrix(0.8046875,0,0,0.8046875,12.225808013003004,2.8125807936761973)"><svg viewBox="0 0 79 95" data-background-color="#05041e" preserveAspectRatio="xMidYMid meet" height="153" width="128" xmlns="http://www.w3.org/2000/svg" xmlns:xlink="http://www.w3.org/1999/xlink"><g id="tight-bounds" transform="matrix(1,0,0,1,0.2103025919685706,-0.24049999999999727)"><svg viewBox="0 0 78.57939481606287 95.481" height="95.481" width="78.57939481606287"><g><svg viewBox="0 0 78.57939481606287 95.481" height="95.481" width="78.57939481606287"><g><svg viewBox="0 0 78.57939481606287 95.481" height="95.481" width="78.57939481606287"><g id="textblocktransform"><svg viewBox="0 0 78.57939481606287 95.481" height="95.481" width="78.57939481606287" id="textblock"><g><svg viewBox="0 0 78.57939481606287 95.481" height="95.481" width="78.57939481606287"><g><svg viewBox="0 0 78.57939481606287 95.481" height="95.481" width="78.57939481606287"><g><svg xmlns="http://www.w3.org/2000/svg" data-name="Layer 1" viewBox="9.665638829861757 0.9802799983201306 80.66872234027647 98.01972000167987" x="0" y="0" height="95.481" width="78.57939481606287" class="icon-icon-0" data-fill-palette-color="accent" id="icon-0"><path d="M90.15 95.51A2.54 2.54 0 0 1 87.8 99H57.41l-1.2-15.69H43.79L42.59 99H12.2a2.54 2.54 0 0 1-2.35-3.49L19.78 71h3.35a12.25 12.25 0 0 0 11.1-7.09H45.29l-0.89 11.66H55.61l-0.89-11.66H65.76A12.25 12.25 0 0 0 76.87 71h3.35ZM36.4 1.88A78.38 78.38 0 0 1 50 1h0a78.38 78.38 0 0 1 13.6 0.88A13.61 13.61 0 0 1 73 7.33c1.52 2.19 4 7.64 5.88 12.45a6.83 6.83 0 0 1 4.53-2l1.5 0a4 4 0 0 1 3.94 4c0 0.85 0 1.76 0 2.88a4.18 4.18 0 0 1-4.09 4.08h-2q0.31 0.41 0.59 0.83a17 17 0 0 1 2.8 9.81V58.72a4.05 4.05 0 0 1-4.05 4.05H76.87a4.05 4.05 0 0 1-4.05-4.05v-3H27.19v3a4.05 4.05 0 0 1-4.05 4.05H17.89a4.05 4.05 0 0 1-4.05-4.05V39.34a17 17 0 0 1 2.8-9.81q0.28-0.42 0.59-0.83h-2a4.18 4.18 0 0 1-4.09-4.08c0-1.12 0-2 0-2.88a4 4 0 0 1 3.94-4l1.5 0a6.83 6.83 0 0 1 4.53 2C23.08 15 25.51 9.52 27 7.33A13.61 13.61 0 0 1 36.4 1.88ZM62.05 38.24A3.15 3.15 0 0 0 65.2 41.4h7.42a3.15 3.15 0 0 0 3.15-3.15V36.3a3.15 3.15 0 0 0-4-3L64.4 35.2A3.15 3.15 0 0 0 62.05 38.24Zm-26.45-3l-7.42-1.95a3.14 3.14 0 0 0-4 3v1.95a3.15 3.15 0 0 0 3.15 3.15H34.8a3.15 3.15 0 0 0 0.8-6.2Z" fill="#1975ee" data-fill-palette-color="accent"></path></svg></g></svg></g></svg></g></svg></g></svg></g></svg></g><defs></defs></svg><rect width="78.57939481606287" height="95.481" fill="none" stroke="none" visibility="hidden"></rect></g></svg></g></svg>