<svg xmlns="http://www.w3.org/2000/svg" version="1.1" xmlns:xlink="http://www.w3.org/1999/xlink" xmlns:svgjs="http://svgjs.dev/svgjs" width="2000" height="393" viewBox="0 0 2000 393"><g transform="matrix(1,0,0,1,1.7710548909518593,7.6625772774856955)"><svg viewBox="0 0 396 78" data-background-color="#05041e" preserveAspectRatio="xMidYMid meet" height="393" width="2000" xmlns="http://www.w3.org/2000/svg" xmlns:xlink="http://www.w3.org/1999/xlink"><g id="tight-bounds" transform="matrix(1,0,0,1,0.2400000000000091,-0.07160731249391006)"><svg viewBox="0 0 395.52 78.14321462498783" height="78.14321462498783" width="395.52"><g><svg viewBox="0 0 492.15282938632805 97.23504291826166" height="78.14321462498783" width="395.52"><g transform="matrix(1,0,0,1,96.63282938632808,13.438417653681604)"><svg viewBox="0 0 395.52 70.35820761089845" height="70.35820761089845" width="395.52"><g id="textblocktransform"><svg viewBox="0 0 395.52 70.35820761089845" height="70.35820761089845" width="395.52" id="textblock"><g><svg viewBox="0 0 395.52 70.35820761089845" height="70.35820761089845" width="395.52"><g transform="matrix(1,0,0,1,0,0)"><svg width="395.52" viewBox="2.78 -31.74 216.83 38.58" height="70.35820761089845" data-palette-color="#ffffff"><path d="M17.43-29.79L17.43-29.79Q11.52-29.79 7.32-25.88L7.32-25.88Q2.78-21.63 2.78-14.7L2.78-14.7Q2.78-7.08 8.11-2.73L8.11-2.73Q12.11 0.49 17.29 0.49L17.29 0.49Q19.19 0.49 21.24-0.05L21.24-0.05Q23.49 3.76 24.51 4.83L24.51 4.83Q26.42 6.79 28.56 6.84L28.56 6.84Q32.52 6.74 35.01 1.17L35.01 1.17 33.98 0.59Q31.4 3.61 29.15 3.66L29.15 3.66Q27.15 3.66 24.66 0.59L24.66 0.59Q24.32 0.15 23.54-0.88L23.54-0.88Q29-3.42 30.96-9.23L30.96-9.23Q31.84-11.82 31.84-14.79L31.84-14.79Q31.84-22.61 26.37-26.81L26.37-26.81Q22.46-29.79 17.43-29.79ZM16.7-5.81L16.7-5.81Q13.92-5.76 11.77-2.69L11.77-2.69Q7.67-6.01 7.67-14.7L7.67-14.7Q7.67-26.46 14.99-28.17L14.99-28.17Q16.16-28.42 17.38-28.42L17.38-28.42Q25.24-28.42 26.66-19.19L26.66-19.19Q26.95-17.19 26.95-14.89L26.95-14.89Q26.9-5.52 22.36-2.34L22.36-2.34Q19.48-5.76 16.7-5.81ZM17.29-0.88L17.29-0.88Q14.79-0.88 12.89-1.9L12.89-1.9Q14.75-4.05 16.55-4.1L16.55-4.1Q18.51-4.05 20.36-1.37L20.36-1.37Q18.99-0.88 17.29-0.88ZM59.67-1.22L59.67-1.22 57.22-1.22 57.22-20.75 49.56-20.75 49.56-19.53 53.56-19.53 53.56-8.98Q53.56-4.59 50.49-2.54L50.49-2.54Q49.12-1.61 47.65-1.61L47.65-1.61Q43.65-1.61 43.02-5.71L43.02-5.71Q42.92-6.4 42.92-7.18L42.92-7.18 42.92-20.75 35.5-20.75 35.5-19.53 39.26-19.53 39.26-7.91Q39.3 0.44 46.24 0.49L46.24 0.49Q49.9 0.49 52.24-2.49L52.24-2.49Q53.12-3.61 53.66-4.98L53.66-4.98 54 0 60.89 0Q60.89-1.07 60.15-1.17L60.15-1.17Q59.96-1.22 59.67-1.22ZM73.68-1.22L73.68-1.22 71.24-1.22 71.24-20.75 63.67-20.75 63.67-19.53 67.57-19.53 67.57-4.15Q67.57-1.9 66.06-1.42L66.06-1.42Q65.33-1.22 63.67-1.22L63.67-1.22 63.67 0 74.9 0Q74.9-1.07 74.16-1.17L74.16-1.17Q73.92-1.22 73.68-1.22ZM71.82-27.88L71.82-27.88Q71.82-29.59 70.31-30.32L70.31-30.32Q69.72-30.57 69.18-30.57L69.18-30.57Q67.48-30.57 66.74-29L66.74-29Q66.5-28.47 66.5-27.88L66.5-27.88Q66.5-26.07 68.11-25.39L68.11-25.39Q68.65-25.2 69.18-25.2L69.18-25.2Q70.89-25.2 71.58-26.76L71.58-26.76Q71.82-27.29 71.82-27.88ZM78.31-10.16L78.31-10.16Q78.31-4.25 82.66-1.32L82.66-1.32Q85.34 0.49 88.76 0.49L88.76 0.49Q93.84 0.49 96.43-3.08L96.43-3.08Q97.01-3.91 97.36-4.74L97.36-4.74 96.09-5.18Q94.28-1.32 90.13-0.93L90.13-0.93Q89.74-0.88 89.35-0.88L89.35-0.88Q85.88-0.88 83.93-4.35L83.93-4.35Q82.46-6.98 82.46-10.6L82.46-10.6Q82.46-16.99 85.83-19.14L85.83-19.14Q87.25-20.02 88.96-20.02L88.96-20.02Q91.59-20.02 92.13-17.97L92.13-17.97Q92.23-17.58 92.38-16.75L92.38-16.75Q92.67-14.79 93.45-14.31L93.45-14.31Q93.94-14.06 94.52-14.01L94.52-14.01Q96.18-13.92 96.62-15.38L96.62-15.38Q96.72-15.72 96.72-16.02L96.72-16.02Q96.72-18.51 93.55-20.12L93.55-20.12Q91.3-21.24 88.66-21.24L88.66-21.24Q82.12-21.24 79.53-15.92L79.53-15.92Q78.31-13.38 78.31-10.16ZM108.63-1.22L108.63-1.22 106.44-1.22 106.44-8.45 109.12-10.94 116.01 0 122.5 0Q122.5-1.07 121.77-1.17L121.77-1.17Q121.57-1.22 121.28-1.22L121.28-1.22 119.52-1.22 111.66-13.33 116.25-17.63Q117.96-19.24 118.84-19.43L118.84-19.43Q119.23-19.53 119.72-19.53L119.72-19.53Q120.79-19.53 120.89-20.26L120.89-20.26Q120.94-20.51 120.94-20.75L120.94-20.75 112.64-20.75 112.64-19.53 116.3-19.53 106.44-10.4 106.44-31.74 99.11-31.74 99.11-30.52 102.77-30.52 102.77-4.15Q102.77-1.9 101.5-1.46L101.5-1.46Q100.77-1.22 99.11-1.22L99.11-1.22 99.11 0 109.85 0Q109.85-1.07 109.12-1.17L109.12-1.17Q108.93-1.22 108.63-1.22ZM141.59-28.03L146.91-28.03Q151.25-28.03 152.52-24.12L152.52-24.12Q152.91-22.85 152.91-21.39L152.91-21.39Q152.91-15.04 147.25-14.4L147.25-14.4Q146.66-14.36 146.08-14.36L146.08-14.36 141.59-14.36 141.59-28.03ZM133.48 0L146.47 0Q146.47-1.07 145.69-1.22L145.69-1.22Q145.44-1.27 145.2-1.27L145.2-1.27 141.59-1.27 141.59-12.94 145.88-12.94Q153.89-12.94 156.48-17.48L156.48-17.48Q157.5-19.19 157.5-21.44L157.5-21.44Q157.5-26.27 153.31-28.22L153.31-28.22Q151.06-29.3 147.93-29.3L147.93-29.3 133.48-29.3 133.48-28.03 137.39-28.03 137.39-1.27 133.48-1.27 133.48 0ZM178.06 0.49L178.06 0.49Q181.82 0.49 182.21-4.05L182.21-4.05Q182.26-4.35 182.26-4.59L182.26-4.59 180.99-4.64Q180.65-1.07 179.08-1.03L179.08-1.03Q177.81-1.12 177.77-3.56L177.77-3.56 177.77-13.87Q177.77-20.85 170.78-21.24L170.78-21.24Q170.34-21.24 169.9-21.24L169.9-21.24Q164.44-21.24 162.58-18.7L162.58-18.7Q161.99-17.87 161.99-17.04L161.99-17.04Q161.99-15.53 163.41-15.28L163.41-15.28Q163.65-15.23 163.9-15.23L163.9-15.23Q165.02-15.23 165.56-16.65L165.56-16.65Q166.24-18.46 166.49-18.8L166.49-18.8Q167.41-20.02 169.37-20.02L169.37-20.02Q173.96-19.73 174.1-14.99L174.1-14.99 174.1-11.91Q162.63-11.91 160.97-7.13L160.97-7.13Q160.68-6.2 160.68-5.13L160.68-5.13Q160.68-1.42 163.95-0.05L163.95-0.05Q165.27 0.49 166.73 0.49L166.73 0.49Q170.3 0.49 172.74-1.95L172.74-1.95Q173.62-2.88 174.05-3.91L174.05-3.91Q174.64 0.44 178.06 0.49ZM168.34-1.46L168.34-1.46Q165.36-1.46 164.68-4.44L164.68-4.44Q164.53-5.13 164.53-5.96L164.53-5.96Q164.53-9.23 168.29-10.11L168.29-10.11Q170.3-10.55 174.1-10.6L174.1-10.6 174.1-6.69Q173.37-3.32 170.54-1.95L170.54-1.95Q169.42-1.46 168.34-1.46ZM191.78-0.83L191.78-0.83Q195.15-0.83 196.32-2.88L196.32-2.88Q196.76-3.61 196.76-4.49L196.76-4.49Q196.76-6.54 193.78-8.01L193.78-8.01Q193.14-8.35 191.68-8.98L191.68-8.98Q187.68-10.64 186.36-12.11L186.36-12.11Q184.94-13.72 184.94-15.87L184.94-15.87Q184.94-19.24 188.65-20.61L188.65-20.61Q190.36-21.24 192.36-21.24L192.36-21.24Q195.59-21.24 197.93-19.87L197.93-19.87Q197.93-21.29 198.61-21.48L198.61-21.48Q198.91-21.53 199.25-21.53L199.25-21.53 199.25-15.43 197.98-15.43Q197.88-19.92 193-19.97L193-19.97Q189.34-19.97 188.46-17.82L188.46-17.82Q188.21-17.24 188.21-16.6L188.21-16.6Q188.21-14.5 191.24-13.04L191.24-13.04Q191.92-12.7 193.39-12.11L193.39-12.11Q197.34-10.5 198.66-9.03L198.66-9.03Q200.08-7.47 200.08-5.32L200.08-5.32Q200.08-1.37 195.88-0.05L195.88-0.05Q194.27 0.49 192.36 0.49L192.36 0.49Q188.85 0.44 186.26-1.27L186.26-1.27Q186.26 0 185.62 0.2L185.62 0.2Q185.33 0.24 184.94 0.24L184.94 0.24 184.94-7.18 186.31-7.18Q186.41-0.88 191.78-0.83ZM211.31-0.83L211.31-0.83Q214.67-0.83 215.85-2.88L215.85-2.88Q216.29-3.61 216.29-4.49L216.29-4.49Q216.29-6.54 213.31-8.01L213.31-8.01Q212.67-8.35 211.21-8.98L211.21-8.98Q207.2-10.64 205.89-12.11L205.89-12.11Q204.47-13.72 204.47-15.87L204.47-15.87Q204.47-19.24 208.18-20.61L208.18-20.61Q209.89-21.24 211.89-21.24L211.89-21.24Q215.11-21.24 217.46-19.87L217.46-19.87Q217.46-21.29 218.14-21.48L218.14-21.48Q218.43-21.53 218.78-21.53L218.78-21.53 218.78-15.43 217.51-15.43Q217.41-19.92 212.53-19.97L212.53-19.97Q208.86-19.97 207.99-17.82L207.99-17.82Q207.74-17.24 207.74-16.6L207.74-16.6Q207.74-14.5 210.77-13.04L210.77-13.04Q211.45-12.7 212.92-12.11L212.92-12.11Q216.87-10.5 218.19-9.03L218.19-9.03Q219.61-7.47 219.61-5.32L219.61-5.32Q219.61-1.37 215.41-0.05L215.41-0.05Q213.8 0.49 211.89 0.49L211.89 0.49Q208.38 0.44 205.79-1.27L205.79-1.27Q205.79 0 205.15 0.2L205.15 0.2Q204.86 0.24 204.47 0.24L204.47 0.24 204.47-7.18 205.84-7.18Q205.93-0.88 211.31-0.83Z" opacity="1" transform="matrix(1,0,0,1,0,0)" fill="#ffffff" class="wordmark-text-0" data-fill-palette-color="primary" id="text-0"></path></svg></g></svg></g></svg></g></svg></g><g><svg viewBox="0 0 80.02294516637762 97.23504291826166" height="97.23504291826166" width="80.02294516637762"><g><svg xmlns="http://www.w3.org/2000/svg" data-name="Layer 1" viewBox="9.665638829861757 0.9802799983201306 80.66872234027647 98.01972000167987" x="0" y="0" height="97.23504291826166" width="80.02294516637762" class="icon-icon-0" data-fill-palette-color="accent" id="icon-0"><path d="M90.15 95.51A2.54 2.54 0 0 1 87.8 99H57.41l-1.2-15.69H43.79L42.59 99H12.2a2.54 2.54 0 0 1-2.35-3.49L19.78 71h3.35a12.25 12.25 0 0 0 11.1-7.09H45.29l-0.89 11.66H55.61l-0.89-11.66H65.76A12.25 12.25 0 0 0 76.87 71h3.35ZM36.4 1.88A78.38 78.38 0 0 1 50 1h0a78.38 78.38 0 0 1 13.6 0.88A13.61 13.61 0 0 1 73 7.33c1.52 2.19 4 7.64 5.88 12.45a6.83 6.83 0 0 1 4.53-2l1.5 0a4 4 0 0 1 3.94 4c0 0.85 0 1.76 0 2.88a4.18 4.18 0 0 1-4.09 4.08h-2q0.31 0.41 0.59 0.83a17 17 0 0 1 2.8 9.81V58.72a4.05 4.05 0 0 1-4.05 4.05H76.87a4.05 4.05 0 0 1-4.05-4.05v-3H27.19v3a4.05 4.05 0 0 1-4.05 4.05H17.89a4.05 4.05 0 0 1-4.05-4.05V39.34a17 17 0 0 1 2.8-9.81q0.28-0.42 0.59-0.83h-2a4.18 4.18 0 0 1-4.09-4.08c0-1.12 0-2 0-2.88a4 4 0 0 1 3.94-4l1.5 0a6.83 6.83 0 0 1 4.53 2C23.08 15 25.51 9.52 27 7.33A13.61 13.61 0 0 1 36.4 1.88ZM62.05 38.24A3.15 3.15 0 0 0 65.2 41.4h7.42a3.15 3.15 0 0 0 3.15-3.15V36.3a3.15 3.15 0 0 0-4-3L64.4 35.2A3.15 3.15 0 0 0 62.05 38.24Zm-26.45-3l-7.42-1.95a3.14 3.14 0 0 0-4 3v1.95a3.15 3.15 0 0 0 3.15 3.15H34.8a3.15 3.15 0 0 0 0.8-6.2Z" fill="#1975ee" data-fill-palette-color="accent"></path></svg></g></svg></g></svg></g><defs></defs></svg><rect width="395.52" height="78.14321462498783" fill="none" stroke="none" visibility="hidden"></rect></g></svg></g></svg>